<mxfile host="app.diagrams.net" modified="2023-12-04T20:53:30.313Z" agent="Mozilla/5.0 (Macintosh; Intel Mac OS X 10_15_7) AppleWebKit/537.36 (KHTML, like Gecko) Chrome/119.0.0.0 Safari/537.36" etag="w1_yyNBphNu_55W3o1gB" version="22.1.5" type="device">
  <diagram name="Page-1" id="xbmlnrIqR6tpzwy-XaLy">
    <mxGraphModel dx="2094" dy="1212" grid="1" gridSize="10" guides="1" tooltips="1" connect="1" arrows="1" fold="1" page="1" pageScale="1" pageWidth="1200" pageHeight="1920" math="0" shadow="0">
      <root>
        <mxCell id="0" />
        <mxCell id="1" parent="0" />
        <mxCell id="7R-PQndBpjCBToo4jQJ6-1" value="OR" style="ellipse;whiteSpace=wrap;html=1;" vertex="1" parent="1">
          <mxGeometry x="560" y="140" width="80" height="80" as="geometry" />
        </mxCell>
        <mxCell id="7R-PQndBpjCBToo4jQJ6-2" value="AND" style="ellipse;whiteSpace=wrap;html=1;" vertex="1" parent="1">
          <mxGeometry x="410" y="310" width="80" height="80" as="geometry" />
        </mxCell>
        <mxCell id="7R-PQndBpjCBToo4jQJ6-3" value="root node&lt;br&gt;index = 0" style="text;html=1;strokeColor=none;fillColor=none;align=center;verticalAlign=middle;whiteSpace=wrap;rounded=0;" vertex="1" parent="1">
          <mxGeometry x="480" y="140" width="60" height="30" as="geometry" />
        </mxCell>
        <mxCell id="7R-PQndBpjCBToo4jQJ6-4" value="AND" style="ellipse;whiteSpace=wrap;html=1;" vertex="1" parent="1">
          <mxGeometry x="620" y="310" width="80" height="80" as="geometry" />
        </mxCell>
        <mxCell id="7R-PQndBpjCBToo4jQJ6-5" value="expression 6&lt;br&gt;(param struct 6)" style="ellipse;whiteSpace=wrap;html=1;fontSize=10;" vertex="1" parent="1">
          <mxGeometry x="830" y="310" width="80" height="80" as="geometry" />
        </mxCell>
        <mxCell id="7R-PQndBpjCBToo4jQJ6-6" value="expression 1&lt;br style=&quot;font-size: 10px;&quot;&gt;(param struct1)" style="ellipse;whiteSpace=wrap;html=1;fontSize=10;" vertex="1" parent="1">
          <mxGeometry x="240" y="500" width="80" height="80" as="geometry" />
        </mxCell>
        <mxCell id="7R-PQndBpjCBToo4jQJ6-7" value="expression 2&lt;br style=&quot;font-size: 10px;&quot;&gt;(param struct 2)" style="ellipse;whiteSpace=wrap;html=1;fontSize=10;" vertex="1" parent="1">
          <mxGeometry x="340" y="500" width="80" height="80" as="geometry" />
        </mxCell>
        <mxCell id="7R-PQndBpjCBToo4jQJ6-8" value="expression 3&lt;br style=&quot;font-size: 10px;&quot;&gt;(param struct 3)" style="ellipse;whiteSpace=wrap;html=1;fontSize=10;" vertex="1" parent="1">
          <mxGeometry x="440" y="500" width="80" height="80" as="geometry" />
        </mxCell>
        <mxCell id="7R-PQndBpjCBToo4jQJ6-9" value="expression 4&lt;br style=&quot;font-size: 10px;&quot;&gt;(param struct 4)" style="ellipse;whiteSpace=wrap;html=1;fontSize=10;" vertex="1" parent="1">
          <mxGeometry x="580" y="500" width="80" height="80" as="geometry" />
        </mxCell>
        <mxCell id="7R-PQndBpjCBToo4jQJ6-11" value="expression 5&lt;br style=&quot;font-size: 10px;&quot;&gt;(param struct 5)" style="ellipse;whiteSpace=wrap;html=1;fontSize=10;" vertex="1" parent="1">
          <mxGeometry x="750" y="640" width="80" height="80" as="geometry" />
        </mxCell>
        <mxCell id="7R-PQndBpjCBToo4jQJ6-12" value="NOT" style="ellipse;whiteSpace=wrap;html=1;" vertex="1" parent="1">
          <mxGeometry x="700" y="500" width="80" height="80" as="geometry" />
        </mxCell>
        <mxCell id="7R-PQndBpjCBToo4jQJ6-15" value="" style="endArrow=classic;html=1;rounded=0;entryX=1;entryY=0;entryDx=0;entryDy=0;exitX=0;exitY=1;exitDx=0;exitDy=0;" edge="1" parent="1" source="7R-PQndBpjCBToo4jQJ6-1" target="7R-PQndBpjCBToo4jQJ6-2">
          <mxGeometry width="50" height="50" relative="1" as="geometry">
            <mxPoint x="508.28" y="371.72" as="sourcePoint" />
            <mxPoint x="599.9957287525383" y="260.00427124746193" as="targetPoint" />
          </mxGeometry>
        </mxCell>
        <mxCell id="7R-PQndBpjCBToo4jQJ6-17" value="" style="endArrow=classic;html=1;rounded=0;exitX=0.683;exitY=0.971;exitDx=0;exitDy=0;exitPerimeter=0;" edge="1" parent="1" source="7R-PQndBpjCBToo4jQJ6-1" target="7R-PQndBpjCBToo4jQJ6-4">
          <mxGeometry width="50" height="50" relative="1" as="geometry">
            <mxPoint x="582" y="218" as="sourcePoint" />
            <mxPoint x="488" y="332" as="targetPoint" />
          </mxGeometry>
        </mxCell>
        <mxCell id="7R-PQndBpjCBToo4jQJ6-18" value="" style="endArrow=classic;html=1;rounded=0;exitX=1;exitY=1;exitDx=0;exitDy=0;" edge="1" parent="1" source="7R-PQndBpjCBToo4jQJ6-1" target="7R-PQndBpjCBToo4jQJ6-5">
          <mxGeometry width="50" height="50" relative="1" as="geometry">
            <mxPoint x="655" y="200" as="sourcePoint" />
            <mxPoint x="685" y="294" as="targetPoint" />
          </mxGeometry>
        </mxCell>
        <mxCell id="7R-PQndBpjCBToo4jQJ6-19" value="" style="endArrow=classic;html=1;rounded=0;entryX=0.75;entryY=0.071;entryDx=0;entryDy=0;exitX=0;exitY=1;exitDx=0;exitDy=0;entryPerimeter=0;" edge="1" parent="1" source="7R-PQndBpjCBToo4jQJ6-2" target="7R-PQndBpjCBToo4jQJ6-6">
          <mxGeometry width="50" height="50" relative="1" as="geometry">
            <mxPoint x="394" y="390" as="sourcePoint" />
            <mxPoint x="300" y="504" as="targetPoint" />
          </mxGeometry>
        </mxCell>
        <mxCell id="7R-PQndBpjCBToo4jQJ6-20" value="" style="endArrow=classic;html=1;rounded=0;entryX=0.708;entryY=0.071;entryDx=0;entryDy=0;exitX=0.333;exitY=0.979;exitDx=0;exitDy=0;entryPerimeter=0;exitPerimeter=0;" edge="1" parent="1" source="7R-PQndBpjCBToo4jQJ6-2" target="7R-PQndBpjCBToo4jQJ6-7">
          <mxGeometry width="50" height="50" relative="1" as="geometry">
            <mxPoint x="432" y="388" as="sourcePoint" />
            <mxPoint x="310" y="516" as="targetPoint" />
          </mxGeometry>
        </mxCell>
        <mxCell id="7R-PQndBpjCBToo4jQJ6-21" value="" style="endArrow=classic;html=1;rounded=0;entryX=0.5;entryY=0;entryDx=0;entryDy=0;" edge="1" parent="1" target="7R-PQndBpjCBToo4jQJ6-8">
          <mxGeometry width="50" height="50" relative="1" as="geometry">
            <mxPoint x="462" y="390" as="sourcePoint" />
            <mxPoint x="407" y="516" as="targetPoint" />
          </mxGeometry>
        </mxCell>
        <mxCell id="7R-PQndBpjCBToo4jQJ6-22" value="" style="endArrow=classic;html=1;rounded=0;entryX=0.563;entryY=0.017;entryDx=0;entryDy=0;entryPerimeter=0;exitX=0.404;exitY=1.004;exitDx=0;exitDy=0;exitPerimeter=0;" edge="1" parent="1" source="7R-PQndBpjCBToo4jQJ6-4" target="7R-PQndBpjCBToo4jQJ6-9">
          <mxGeometry width="50" height="50" relative="1" as="geometry">
            <mxPoint x="591" y="390" as="sourcePoint" />
            <mxPoint x="609" y="500" as="targetPoint" />
          </mxGeometry>
        </mxCell>
        <mxCell id="7R-PQndBpjCBToo4jQJ6-23" value="" style="endArrow=classic;html=1;rounded=0;entryX=0.304;entryY=0.046;entryDx=0;entryDy=0;entryPerimeter=0;exitX=0.717;exitY=0.958;exitDx=0;exitDy=0;exitPerimeter=0;" edge="1" parent="1" source="7R-PQndBpjCBToo4jQJ6-4" target="7R-PQndBpjCBToo4jQJ6-12">
          <mxGeometry width="50" height="50" relative="1" as="geometry">
            <mxPoint x="707" y="400" as="sourcePoint" />
            <mxPoint x="680" y="511" as="targetPoint" />
          </mxGeometry>
        </mxCell>
        <mxCell id="7R-PQndBpjCBToo4jQJ6-24" value="" style="endArrow=classic;html=1;rounded=0;exitX=0.679;exitY=0.983;exitDx=0;exitDy=0;exitPerimeter=0;" edge="1" parent="1" source="7R-PQndBpjCBToo4jQJ6-12" target="7R-PQndBpjCBToo4jQJ6-11">
          <mxGeometry width="50" height="50" relative="1" as="geometry">
            <mxPoint x="733" y="523" as="sourcePoint" />
            <mxPoint x="780" y="640" as="targetPoint" />
          </mxGeometry>
        </mxCell>
        <mxCell id="7R-PQndBpjCBToo4jQJ6-25" value="index = 1" style="text;html=1;align=center;verticalAlign=middle;resizable=0;points=[];autosize=1;strokeColor=none;fillColor=none;" vertex="1" parent="1">
          <mxGeometry x="345" y="330" width="70" height="30" as="geometry" />
        </mxCell>
        <mxCell id="7R-PQndBpjCBToo4jQJ6-26" value="index = 2" style="text;html=1;align=center;verticalAlign=middle;resizable=0;points=[];autosize=1;strokeColor=none;fillColor=none;" vertex="1" parent="1">
          <mxGeometry x="550" y="335" width="70" height="30" as="geometry" />
        </mxCell>
        <mxCell id="7R-PQndBpjCBToo4jQJ6-27" value="index = 3" style="text;html=1;align=center;verticalAlign=middle;resizable=0;points=[];autosize=1;strokeColor=none;fillColor=none;" vertex="1" parent="1">
          <mxGeometry x="910" y="335" width="70" height="30" as="geometry" />
        </mxCell>
        <mxCell id="7R-PQndBpjCBToo4jQJ6-28" value="index = 4" style="text;html=1;align=center;verticalAlign=middle;resizable=0;points=[];autosize=1;strokeColor=none;fillColor=none;" vertex="1" parent="1">
          <mxGeometry x="245" y="580" width="70" height="30" as="geometry" />
        </mxCell>
        <mxCell id="7R-PQndBpjCBToo4jQJ6-29" value="index = 5" style="text;html=1;align=center;verticalAlign=middle;resizable=0;points=[];autosize=1;strokeColor=none;fillColor=none;" vertex="1" parent="1">
          <mxGeometry x="345" y="580" width="70" height="30" as="geometry" />
        </mxCell>
        <mxCell id="7R-PQndBpjCBToo4jQJ6-30" value="index = 6" style="text;html=1;align=center;verticalAlign=middle;resizable=0;points=[];autosize=1;strokeColor=none;fillColor=none;" vertex="1" parent="1">
          <mxGeometry x="445" y="580" width="70" height="30" as="geometry" />
        </mxCell>
        <mxCell id="7R-PQndBpjCBToo4jQJ6-31" value="index = 7" style="text;html=1;align=center;verticalAlign=middle;resizable=0;points=[];autosize=1;strokeColor=none;fillColor=none;" vertex="1" parent="1">
          <mxGeometry x="585" y="580" width="70" height="30" as="geometry" />
        </mxCell>
        <mxCell id="7R-PQndBpjCBToo4jQJ6-32" value="index = 8" style="text;html=1;align=center;verticalAlign=middle;resizable=0;points=[];autosize=1;strokeColor=none;fillColor=none;" vertex="1" parent="1">
          <mxGeometry x="780" y="525" width="70" height="30" as="geometry" />
        </mxCell>
        <mxCell id="7R-PQndBpjCBToo4jQJ6-33" value="index = 9" style="text;html=1;align=center;verticalAlign=middle;resizable=0;points=[];autosize=1;strokeColor=none;fillColor=none;" vertex="1" parent="1">
          <mxGeometry x="830" y="665" width="70" height="30" as="geometry" />
        </mxCell>
        <mxCell id="7R-PQndBpjCBToo4jQJ6-38" value="0" style="rounded=0;whiteSpace=wrap;html=1;" vertex="1" parent="1">
          <mxGeometry x="280" y="760" width="70" height="60" as="geometry" />
        </mxCell>
        <mxCell id="7R-PQndBpjCBToo4jQJ6-39" value="OR" style="rounded=0;whiteSpace=wrap;html=1;" vertex="1" parent="1">
          <mxGeometry x="280" y="820" width="70" height="60" as="geometry" />
        </mxCell>
        <mxCell id="7R-PQndBpjCBToo4jQJ6-40" value="NULL" style="rounded=0;whiteSpace=wrap;html=1;" vertex="1" parent="1">
          <mxGeometry x="280" y="940" width="70" height="60" as="geometry" />
        </mxCell>
        <mxCell id="7R-PQndBpjCBToo4jQJ6-41" value="[1,2,3]" style="rounded=0;whiteSpace=wrap;html=1;" vertex="1" parent="1">
          <mxGeometry x="280" y="1000" width="70" height="60" as="geometry" />
        </mxCell>
        <mxCell id="7R-PQndBpjCBToo4jQJ6-42" value="Node Array Index" style="text;html=1;strokeColor=none;fillColor=none;align=center;verticalAlign=middle;whiteSpace=wrap;rounded=0;" vertex="1" parent="1">
          <mxGeometry x="170" y="775" width="80" height="30" as="geometry" />
        </mxCell>
        <mxCell id="7R-PQndBpjCBToo4jQJ6-43" value="Boolean Operator" style="text;html=1;strokeColor=none;fillColor=none;align=center;verticalAlign=middle;whiteSpace=wrap;rounded=0;" vertex="1" parent="1">
          <mxGeometry x="180" y="835" width="60" height="30" as="geometry" />
        </mxCell>
        <mxCell id="7R-PQndBpjCBToo4jQJ6-44" value="NULL" style="rounded=0;whiteSpace=wrap;html=1;" vertex="1" parent="1">
          <mxGeometry x="280" y="880" width="70" height="60" as="geometry" />
        </mxCell>
        <mxCell id="7R-PQndBpjCBToo4jQJ6-45" value="Expression" style="text;html=1;strokeColor=none;fillColor=none;align=center;verticalAlign=middle;whiteSpace=wrap;rounded=0;" vertex="1" parent="1">
          <mxGeometry x="180" y="895" width="60" height="30" as="geometry" />
        </mxCell>
        <mxCell id="7R-PQndBpjCBToo4jQJ6-46" value="Parameter Struct" style="text;html=1;strokeColor=none;fillColor=none;align=center;verticalAlign=middle;whiteSpace=wrap;rounded=0;" vertex="1" parent="1">
          <mxGeometry x="180" y="955" width="60" height="30" as="geometry" />
        </mxCell>
        <mxCell id="7R-PQndBpjCBToo4jQJ6-47" value="Child Node Index" style="text;html=1;strokeColor=none;fillColor=none;align=center;verticalAlign=middle;whiteSpace=wrap;rounded=0;" vertex="1" parent="1">
          <mxGeometry x="180" y="1015" width="60" height="30" as="geometry" />
        </mxCell>
        <mxCell id="7R-PQndBpjCBToo4jQJ6-48" value="1" style="rounded=0;whiteSpace=wrap;html=1;" vertex="1" parent="1">
          <mxGeometry x="350" y="760" width="70" height="60" as="geometry" />
        </mxCell>
        <mxCell id="7R-PQndBpjCBToo4jQJ6-49" value="AND" style="rounded=0;whiteSpace=wrap;html=1;" vertex="1" parent="1">
          <mxGeometry x="350" y="820" width="70" height="60" as="geometry" />
        </mxCell>
        <mxCell id="7R-PQndBpjCBToo4jQJ6-50" value="NULL" style="rounded=0;whiteSpace=wrap;html=1;" vertex="1" parent="1">
          <mxGeometry x="350" y="940" width="70" height="60" as="geometry" />
        </mxCell>
        <mxCell id="7R-PQndBpjCBToo4jQJ6-51" value="[4,5,6]" style="rounded=0;whiteSpace=wrap;html=1;" vertex="1" parent="1">
          <mxGeometry x="350" y="1000" width="70" height="60" as="geometry" />
        </mxCell>
        <mxCell id="7R-PQndBpjCBToo4jQJ6-52" value="NULL" style="rounded=0;whiteSpace=wrap;html=1;" vertex="1" parent="1">
          <mxGeometry x="350" y="880" width="70" height="60" as="geometry" />
        </mxCell>
        <mxCell id="7R-PQndBpjCBToo4jQJ6-53" value="2" style="rounded=0;whiteSpace=wrap;html=1;" vertex="1" parent="1">
          <mxGeometry x="420" y="760" width="70" height="60" as="geometry" />
        </mxCell>
        <mxCell id="7R-PQndBpjCBToo4jQJ6-54" value="AND" style="rounded=0;whiteSpace=wrap;html=1;" vertex="1" parent="1">
          <mxGeometry x="420" y="820" width="70" height="60" as="geometry" />
        </mxCell>
        <mxCell id="7R-PQndBpjCBToo4jQJ6-55" value="NULL" style="rounded=0;whiteSpace=wrap;html=1;" vertex="1" parent="1">
          <mxGeometry x="420" y="940" width="70" height="60" as="geometry" />
        </mxCell>
        <mxCell id="7R-PQndBpjCBToo4jQJ6-56" value="[7,8]" style="rounded=0;whiteSpace=wrap;html=1;" vertex="1" parent="1">
          <mxGeometry x="420" y="1000" width="70" height="60" as="geometry" />
        </mxCell>
        <mxCell id="7R-PQndBpjCBToo4jQJ6-57" value="NULL" style="rounded=0;whiteSpace=wrap;html=1;" vertex="1" parent="1">
          <mxGeometry x="420" y="880" width="70" height="60" as="geometry" />
        </mxCell>
        <mxCell id="7R-PQndBpjCBToo4jQJ6-58" value="3" style="rounded=0;whiteSpace=wrap;html=1;" vertex="1" parent="1">
          <mxGeometry x="490" y="760" width="70" height="60" as="geometry" />
        </mxCell>
        <mxCell id="7R-PQndBpjCBToo4jQJ6-59" value="NULL" style="rounded=0;whiteSpace=wrap;html=1;" vertex="1" parent="1">
          <mxGeometry x="490" y="820" width="70" height="60" as="geometry" />
        </mxCell>
        <mxCell id="7R-PQndBpjCBToo4jQJ6-60" value="param6" style="rounded=0;whiteSpace=wrap;html=1;" vertex="1" parent="1">
          <mxGeometry x="490" y="940" width="70" height="60" as="geometry" />
        </mxCell>
        <mxCell id="7R-PQndBpjCBToo4jQJ6-61" value="[]" style="rounded=0;whiteSpace=wrap;html=1;" vertex="1" parent="1">
          <mxGeometry x="490" y="1000" width="70" height="60" as="geometry" />
        </mxCell>
        <mxCell id="7R-PQndBpjCBToo4jQJ6-62" value="exp6" style="rounded=0;whiteSpace=wrap;html=1;" vertex="1" parent="1">
          <mxGeometry x="490" y="880" width="70" height="60" as="geometry" />
        </mxCell>
        <mxCell id="7R-PQndBpjCBToo4jQJ6-63" value="4" style="rounded=0;whiteSpace=wrap;html=1;" vertex="1" parent="1">
          <mxGeometry x="560" y="760" width="70" height="60" as="geometry" />
        </mxCell>
        <mxCell id="7R-PQndBpjCBToo4jQJ6-64" value="NULL" style="rounded=0;whiteSpace=wrap;html=1;" vertex="1" parent="1">
          <mxGeometry x="560" y="820" width="70" height="60" as="geometry" />
        </mxCell>
        <mxCell id="7R-PQndBpjCBToo4jQJ6-65" value="param1" style="rounded=0;whiteSpace=wrap;html=1;" vertex="1" parent="1">
          <mxGeometry x="560" y="940" width="70" height="60" as="geometry" />
        </mxCell>
        <mxCell id="7R-PQndBpjCBToo4jQJ6-66" value="[]" style="rounded=0;whiteSpace=wrap;html=1;" vertex="1" parent="1">
          <mxGeometry x="560" y="1000" width="70" height="60" as="geometry" />
        </mxCell>
        <mxCell id="7R-PQndBpjCBToo4jQJ6-67" value="exp1" style="rounded=0;whiteSpace=wrap;html=1;" vertex="1" parent="1">
          <mxGeometry x="560" y="880" width="70" height="60" as="geometry" />
        </mxCell>
        <mxCell id="7R-PQndBpjCBToo4jQJ6-68" value="5" style="rounded=0;whiteSpace=wrap;html=1;" vertex="1" parent="1">
          <mxGeometry x="630" y="760" width="70" height="60" as="geometry" />
        </mxCell>
        <mxCell id="7R-PQndBpjCBToo4jQJ6-69" value="NULL" style="rounded=0;whiteSpace=wrap;html=1;" vertex="1" parent="1">
          <mxGeometry x="630" y="820" width="70" height="60" as="geometry" />
        </mxCell>
        <mxCell id="7R-PQndBpjCBToo4jQJ6-70" value="param2" style="rounded=0;whiteSpace=wrap;html=1;" vertex="1" parent="1">
          <mxGeometry x="630" y="940" width="70" height="60" as="geometry" />
        </mxCell>
        <mxCell id="7R-PQndBpjCBToo4jQJ6-71" value="[]" style="rounded=0;whiteSpace=wrap;html=1;" vertex="1" parent="1">
          <mxGeometry x="630" y="1000" width="70" height="60" as="geometry" />
        </mxCell>
        <mxCell id="7R-PQndBpjCBToo4jQJ6-72" value="exp2" style="rounded=0;whiteSpace=wrap;html=1;" vertex="1" parent="1">
          <mxGeometry x="630" y="880" width="70" height="60" as="geometry" />
        </mxCell>
        <mxCell id="7R-PQndBpjCBToo4jQJ6-78" value="6" style="rounded=0;whiteSpace=wrap;html=1;" vertex="1" parent="1">
          <mxGeometry x="700" y="760" width="70" height="60" as="geometry" />
        </mxCell>
        <mxCell id="7R-PQndBpjCBToo4jQJ6-79" value="NULL" style="rounded=0;whiteSpace=wrap;html=1;" vertex="1" parent="1">
          <mxGeometry x="700" y="820" width="70" height="60" as="geometry" />
        </mxCell>
        <mxCell id="7R-PQndBpjCBToo4jQJ6-80" value="param3" style="rounded=0;whiteSpace=wrap;html=1;" vertex="1" parent="1">
          <mxGeometry x="700" y="940" width="70" height="60" as="geometry" />
        </mxCell>
        <mxCell id="7R-PQndBpjCBToo4jQJ6-81" value="[]" style="rounded=0;whiteSpace=wrap;html=1;" vertex="1" parent="1">
          <mxGeometry x="700" y="1000" width="70" height="60" as="geometry" />
        </mxCell>
        <mxCell id="7R-PQndBpjCBToo4jQJ6-82" value="exp3" style="rounded=0;whiteSpace=wrap;html=1;" vertex="1" parent="1">
          <mxGeometry x="700" y="880" width="70" height="60" as="geometry" />
        </mxCell>
        <mxCell id="7R-PQndBpjCBToo4jQJ6-83" value="7" style="rounded=0;whiteSpace=wrap;html=1;" vertex="1" parent="1">
          <mxGeometry x="770" y="760" width="70" height="60" as="geometry" />
        </mxCell>
        <mxCell id="7R-PQndBpjCBToo4jQJ6-84" value="NULL" style="rounded=0;whiteSpace=wrap;html=1;" vertex="1" parent="1">
          <mxGeometry x="770" y="820" width="70" height="60" as="geometry" />
        </mxCell>
        <mxCell id="7R-PQndBpjCBToo4jQJ6-85" value="param4" style="rounded=0;whiteSpace=wrap;html=1;" vertex="1" parent="1">
          <mxGeometry x="770" y="940" width="70" height="60" as="geometry" />
        </mxCell>
        <mxCell id="7R-PQndBpjCBToo4jQJ6-86" value="[]" style="rounded=0;whiteSpace=wrap;html=1;" vertex="1" parent="1">
          <mxGeometry x="770" y="1000" width="70" height="60" as="geometry" />
        </mxCell>
        <mxCell id="7R-PQndBpjCBToo4jQJ6-87" value="exp4" style="rounded=0;whiteSpace=wrap;html=1;" vertex="1" parent="1">
          <mxGeometry x="770" y="880" width="70" height="60" as="geometry" />
        </mxCell>
        <mxCell id="7R-PQndBpjCBToo4jQJ6-88" value="8" style="rounded=0;whiteSpace=wrap;html=1;" vertex="1" parent="1">
          <mxGeometry x="840" y="760" width="70" height="60" as="geometry" />
        </mxCell>
        <mxCell id="7R-PQndBpjCBToo4jQJ6-89" value="NOT" style="rounded=0;whiteSpace=wrap;html=1;" vertex="1" parent="1">
          <mxGeometry x="840" y="820" width="70" height="60" as="geometry" />
        </mxCell>
        <mxCell id="7R-PQndBpjCBToo4jQJ6-90" value="NULL" style="rounded=0;whiteSpace=wrap;html=1;" vertex="1" parent="1">
          <mxGeometry x="840" y="940" width="70" height="60" as="geometry" />
        </mxCell>
        <mxCell id="7R-PQndBpjCBToo4jQJ6-91" value="[9]" style="rounded=0;whiteSpace=wrap;html=1;" vertex="1" parent="1">
          <mxGeometry x="840" y="1000" width="70" height="60" as="geometry" />
        </mxCell>
        <mxCell id="7R-PQndBpjCBToo4jQJ6-92" value="NULL" style="rounded=0;whiteSpace=wrap;html=1;" vertex="1" parent="1">
          <mxGeometry x="840" y="880" width="70" height="60" as="geometry" />
        </mxCell>
        <mxCell id="7R-PQndBpjCBToo4jQJ6-93" value="9" style="rounded=0;whiteSpace=wrap;html=1;" vertex="1" parent="1">
          <mxGeometry x="910" y="760" width="70" height="60" as="geometry" />
        </mxCell>
        <mxCell id="7R-PQndBpjCBToo4jQJ6-94" value="NULL" style="rounded=0;whiteSpace=wrap;html=1;" vertex="1" parent="1">
          <mxGeometry x="910" y="820" width="70" height="60" as="geometry" />
        </mxCell>
        <mxCell id="7R-PQndBpjCBToo4jQJ6-95" value="param5" style="rounded=0;whiteSpace=wrap;html=1;" vertex="1" parent="1">
          <mxGeometry x="910" y="940" width="70" height="60" as="geometry" />
        </mxCell>
        <mxCell id="7R-PQndBpjCBToo4jQJ6-96" value="[]" style="rounded=0;whiteSpace=wrap;html=1;" vertex="1" parent="1">
          <mxGeometry x="910" y="1000" width="70" height="60" as="geometry" />
        </mxCell>
        <mxCell id="7R-PQndBpjCBToo4jQJ6-97" value="exp5" style="rounded=0;whiteSpace=wrap;html=1;" vertex="1" parent="1">
          <mxGeometry x="910" y="880" width="70" height="60" as="geometry" />
        </mxCell>
      </root>
    </mxGraphModel>
  </diagram>
</mxfile>
